<?xml version="1.0" encoding="utf-8"?>
<!-- Generator: Adobe Illustrator 16.0.0, SVG Export Plug-In . SVG Version: 6.00 Build 0)  -->
<!DOCTYPE svg PUBLIC "-//W3C//DTD SVG 1.1//EN" "http://www.w3.org/Graphics/SVG/1.1/DTD/svg11.dtd">
<svg version="1.1" id="Camada_1" xmlns="http://www.w3.org/2000/svg" xmlns:xlink="http://www.w3.org/1999/xlink" x="0px" y="0px"
	 width="449.787px" height="111.489px" viewBox="0 0 449.787 111.489" enable-background="new 0 0 449.787 111.489"
	 xml:space="preserve">
<path fill-rule="evenodd" clip-rule="evenodd" fill="#7C756C" d="M67.504,109.164c-3.734,0-11.827-6.884-19.712-14.264
	c-8.401-7.862-16.786-17.322-16.786-26.423c0-22,13.574-29.625,36.499-29.625c22.925,0,36.499,7.625,36.499,29.625
	c0,9.101-8.385,18.561-16.786,26.423C79.331,102.28,71.238,109.164,67.504,109.164"/>
<path fill-rule="evenodd" clip-rule="evenodd" fill="#FFFFFF" d="M67.504,71.05c5.788,0,10.479,3.8,10.479,8.487
	s-4.692,8.488-10.479,8.488c-5.787,0-10.479-3.801-10.479-8.488S61.717,71.05,67.504,71.05"/>
<path fill-rule="evenodd" clip-rule="evenodd" fill="#FFFFFF" d="M55.735,54.383c1.974,0,3.574,1.601,3.574,3.575
	s-1.601,3.575-3.574,3.575c-1.975,0-3.575-1.601-3.575-3.575S53.76,54.383,55.735,54.383"/>
<path fill-rule="evenodd" clip-rule="evenodd" fill="#FFFFFF" d="M79.273,54.383c-1.974,0-3.574,1.601-3.574,3.575
	s1.6,3.575,3.574,3.575c1.975,0,3.575-1.601,3.575-3.575S81.248,54.383,79.273,54.383"/>
<path fill-rule="evenodd" clip-rule="evenodd" fill="#7C756C" d="M67.501,75.414c3.367,0,6.098,1.847,6.098,4.124
	c0,2.278-2.731,4.123-6.098,4.123c-3.362,0-6.093-1.845-6.093-4.123C61.409,77.261,64.139,75.414,67.501,75.414"/>
<path fill-rule="evenodd" clip-rule="evenodd" fill="#7C756C" d="M27.416,60.482c-7.346,0.205-10.029-9.851-6.971-15.655
	c3.079-5.499,6.588-6.649,8.987-6.65c2.947,0,6.382,0.699,8.075,4.336C32.341,46.559,28.788,52.383,27.416,60.482"/>
<path fill-rule="evenodd" clip-rule="evenodd" fill="#F47521" d="M67.504,3.56c2.104,0.018,3.432,12.427,4.622,15.048
	c0.61,1.344,1.689,0.623,2.495-1.425C76.69,11.924,80.75,5.1,81.733,5.361c0.974,0.258,0.248,7.563-0.341,13.037
	c-0.263,2.445,0.637,2.792,2.124,0.833c0.483-0.637,3.278-4.35,4.451-4.065c0.278,0.068,0.598,0.298,0.653,1.725
	c0.041,1.065,1.33,0.513,3.122-1.168c2.652-2.489,5.252-4.957,5.838-4.44c0.543,0.479-0.813,4.491-2.088,8.191
	c-0.801,2.325-0.548,3.443,0.701,2.62c0.546-0.36,2.47-1.606,3.023-0.896c0.144,0.183,0.379,0.449-0.193,2.016
	c-0.399,1.093,0.843,0.846,2.929-0.455c2.835-1.768,5.675-3.506,6.109-3.106c0.579,0.533-1.28,3.937-3.277,7.621
	c-1.172,2.162,0.18,2.334,1.572,1.463c1.392-0.872,3.899-1.916,4.688-2.104c0.789-0.188,3.952-2.208,1.368,4.552
	c-0.452,1.182,0.77,1.522,1.827,1.27c2.845-0.678,4.036-1.231,7.289-1.231c0.484,0,1.158,0.056,1.473,0.549
	c0.411,0.645,0.009,1.655-4.042,5.806c-0.496,0.508-0.414,0.963,1.072,1.277c8.787,1.858,8.218,3.441,8.084,3.884
	c-0.138,0.455-1.85,1.027-4.086,2.163c-1.561,0.791-1.088,2.125,1.072,3.297c5.737,3.118,5.413,4.333,5.351,4.599
	c-0.051,0.217-0.168,0.646-1.419,0.977c-0.973,0.254-0.379,1.252,1.266,2.525c1.482,1.155,2.724,2.151,2.512,2.687
	c-0.212,0.536-1.733,0.733-3.606,1.048c-2.067,0.334-2.658,1.438-1.428,2.705c1.871,1.911,1.596,2.405,1.386,2.646
	s-0.771,0.475-1.749,0.439c-0.984-0.035-0.621,0.354-0.189,0.654c0.899,0.624,5.32,4.112,5.162,4.852
	c-0.065,0.339-1.361,0.096-3.186-0.278c-1.78-0.354-2.605-0.738-2.315,0.349c0.289,1.086-1.169,1.761-2.3,1.913
	c-0.521,0.068-1.195,0.111-2.05,0.105c-2.159,0-2.53,2.058-3.729,3.978c-5.072,8.088-15.288,13.571-22.506,14.42
	c6.181-6.657,11.927-14.838,11.927-23.337c0-1.304-0.046-2.56-0.133-3.773c10.441-0.213,14.583-13.539,10.208-21.844l-0.025-0.048
	l-0.026-0.047c-2.675-4.777-6.891-8.809-12.67-8.81c-4.939-0.001-9.275,1.756-11.617,6.197c-6.997-3.965-16.141-5.521-26.457-5.521
	c-10.315,0-19.46,1.556-26.457,5.521c-2.342-4.44-6.677-6.198-11.617-6.197c-5.78,0.001-9.996,4.033-12.67,8.81l-0.026,0.047
	l-0.025,0.048c-4.376,8.306-0.234,21.631,10.207,21.844c-0.086,1.214-0.133,2.47-0.133,3.773c0,8.499,5.746,16.68,11.927,23.337
	c-7.218-0.849-17.435-6.332-22.506-14.42c-1.199-1.92-1.57-3.978-3.729-3.978c-0.854,0.006-1.529-0.037-2.05-0.105
	c-1.13-0.152-2.589-0.827-2.299-1.913c0.29-1.087-0.536-0.702-2.315-0.349c-1.825,0.374-3.122,0.617-3.186,0.278
	c-0.158-0.739,4.262-4.228,5.161-4.852c0.432-0.3,0.795-0.689-0.189-0.654c-0.978,0.035-1.538-0.198-1.749-0.439
	s-0.485-0.735,1.386-2.646c1.229-1.267,0.639-2.371-1.428-2.705C3.933,59.717,2.412,59.52,2.2,58.983s1.029-1.532,2.512-2.687
	c1.645-1.272,2.239-2.271,1.266-2.525c-1.251-0.331-1.368-0.76-1.419-0.977c-0.063-0.265-0.386-1.481,5.351-4.599
	c2.16-1.172,2.632-2.506,1.071-3.297c-2.235-1.135-3.948-1.708-4.085-2.163c-0.134-0.443-0.703-2.025,8.084-3.884
	c1.485-0.314,1.568-0.769,1.072-1.277c-4.051-4.15-4.453-5.161-4.042-5.806c0.314-0.493,0.989-0.549,1.473-0.549
	c3.253,0,4.444,0.554,7.289,1.231c1.058,0.252,2.279-0.088,1.827-1.27c-2.584-6.76,0.579-4.741,1.368-4.552s3.296,1.232,4.688,2.104
	c1.392,0.872,2.744,0.699,1.572-1.463c-1.998-3.684-3.856-7.088-3.277-7.621c0.433-0.399,3.273,1.338,6.108,3.106
	c2.086,1.301,3.328,1.548,2.93,0.455c-0.572-1.567-0.336-1.833-0.193-2.016c0.553-0.71,2.477,0.536,3.023,0.896
	c1.249,0.823,1.502-0.295,0.701-2.62c-1.274-3.7-2.631-7.712-2.088-8.191c0.586-0.517,3.187,1.952,5.838,4.44
	c1.792,1.682,3.081,2.233,3.122,1.168c0.055-1.426,0.375-1.657,0.653-1.725c1.173-0.285,3.967,3.428,4.451,4.065
	c1.487,1.959,2.386,1.612,2.124-0.833c-0.589-5.474-1.314-12.778-0.341-13.037c0.983-0.261,5.043,6.563,7.112,11.822
	c0.805,2.047,1.885,2.769,2.495,1.425C64.073,15.986,65.4,3.578,67.504,3.56"/>
<path fill-rule="evenodd" clip-rule="evenodd" fill="#7C756C" d="M107.592,60.482c7.346,0.205,10.029-9.851,6.972-15.655
	c-3.08-5.499-6.588-6.649-8.988-6.65c-2.947,0-6.382,0.699-8.075,4.336C102.667,46.559,106.22,52.383,107.592,60.482"/>
<path fill-rule="evenodd" clip-rule="evenodd" fill="#FFFFFF" d="M67.502,76.532c-1.792,0-4.35,0.947-4.489,2.576
	c-0.048,0.565,1.856-1.113,4.489-1.113s4.537,1.679,4.489,1.113C71.853,77.479,69.294,76.532,67.502,76.532"/>
<path fill-rule="evenodd" clip-rule="evenodd" fill="#F47521" d="M197.177,71.609l0,26.79h6.464V70.311
	c0-6.083-3.024-21.273-19.614-21.357c-6.042-0.031-12.326,3.081-15.798,7.266V22.513h-6.464v75.887h6.464V72.488
	c0-14.428,8.866-17.701,15.444-17.445C193.047,55.407,197.177,63.299,197.177,71.609"/>
<path fill-rule="evenodd" clip-rule="evenodd" fill="#7C756C" d="M239.739,47.808c7.291,0,13.892,2.955,18.669,7.732l-4.571,4.571
	c-3.607-3.607-8.592-5.839-14.098-5.839c-11.01,0-19.936,8.926-19.936,19.936c0,11.011,8.926,19.937,19.936,19.937
	c5.506,0,10.49-2.231,14.098-5.839l4.571,4.571c-4.777,4.777-11.378,7.732-18.669,7.732c-14.58,0-26.4-11.819-26.4-26.401
	C213.339,59.628,225.159,47.808,239.739,47.808"/>
<path fill-rule="evenodd" clip-rule="evenodd" fill="#7C756C" d="M294.506,54.272c11.011,0,19.937,8.926,19.937,19.936
	c0,11.011-8.926,19.937-19.937,19.937c-11.01,0-19.936-8.926-19.936-19.937C274.57,63.198,283.496,54.272,294.506,54.272
	 M294.506,47.808c14.582,0,26.402,11.82,26.402,26.4c0,14.582-11.82,26.401-26.402,26.401c-14.58,0-26.4-11.819-26.4-26.401
	C268.105,59.628,279.926,47.808,294.506,47.808z"/>
<path fill-rule="evenodd" clip-rule="evenodd" fill="#7C756C" d="M376.941,74.162h-0.021v-0.869
	c-0.479-10.585-9.21-19.021-19.915-19.021c-11.01,0-19.936,8.926-19.936,19.936c0,11.011,8.926,19.937,19.936,19.937
	c11.012,0,19.937-8.926,19.937-19.937V74.162z M357.005,47.808c7.948,0,15.075,3.512,19.915,9.068V22.513h6.478V73.51
	c0.006,0.232,0.009,0.465,0.009,0.698c0,14.582-11.819,26.401-26.401,26.401c-14.58,0-26.4-11.819-26.4-26.401
	C330.604,59.628,342.425,47.808,357.005,47.808z"/>
<path fill-rule="evenodd" clip-rule="evenodd" fill="#7C756C" d="M437.672,65.994c-3.944-8.75-13.755-13.607-23.327-11.042
	c-9.572,2.564-15.64,11.676-14.681,21.227L437.672,65.994z M412.671,48.707c14.085-3.774,28.562,4.584,32.335,18.668
	c0.283,1.058,0.497,2.117,0.646,3.174l-44.314,11.874c3.944,8.751,13.755,13.607,23.326,11.043c5.317-1.426,9.555-4.87,12.105-9.289
	l5.599,3.232c-3.378,5.852-8.988,10.414-16.031,12.301c-14.084,3.774-28.56-4.584-32.334-18.669
	C390.229,66.957,398.587,52.481,412.671,48.707z"/>
</svg>
